<svg width="1035" height="1321" xmlns="http://www.w3.org/2000/svg" xmlns:xlink="http://www.w3.org/1999/xlink" xml:space="preserve" overflow="hidden"><g transform="translate(-1133 -578)"><path d="M1143.5 634.168C1143.5 608.946 1163.95 588.5 1189.17 588.5L2111.83 588.5C2137.05 588.5 2157.5 608.946 2157.5 634.168L2157.5 816.832C2157.5 842.054 2137.05 862.5 2111.83 862.5L1189.17 862.5C1163.95 862.5 1143.5 842.054 1143.5 816.832Z" stroke="#000000" stroke-width="20.625" stroke-linecap="round" stroke-miterlimit="8" fill="none" fill-rule="evenodd"/><g><g><g><path d="M1598.96 751.542C1598.96 779.731 1621.81 802.583 1650 802.583 1678.19 802.583 1701.04 779.731 1701.04 751.542 1701.04 719.079 1650 647.417 1650 647.417 1650 647.417 1598.96 719.283 1598.96 751.542ZM1696.96 751.542C1696.96 777.476 1675.93 798.5 1650 798.5 1624.07 798.5 1603.04 777.476 1603.04 751.542 1603.04 725.624 1638.78 671.08 1650 654.594 1661.23 671.043 1696.96 725.449 1696.96 751.542Z" stroke="#000000" stroke-width="25.0212" fill="none"/></g></g></g><path d="M1143.5 725.5 1143.5 1726.52" stroke="#000000" stroke-width="20.625" stroke-linecap="round" stroke-linejoin="round" stroke-miterlimit="10" fill="none" fill-rule="evenodd"/><path d="M2157.5 725.5 2157.5 1725.79" stroke="#000000" stroke-width="20.625" stroke-linecap="round" stroke-linejoin="round" stroke-miterlimit="10" fill="none" fill-rule="evenodd"/><path d="M0 0 686.184 0.0046916" stroke="#000000" stroke-width="20.625" stroke-linecap="round" stroke-linejoin="round" stroke-miterlimit="10" fill="none" fill-rule="evenodd" transform="matrix(1 0 0 -1 1308.5 1887.5)"/><path d="M1306.22 1887.5C1217.03 1888.17 1144.18 1816.19 1143.5 1726.72 1143.5 1726.56 1143.5 1726.4 1143.5 1726.24" stroke="#000000" stroke-width="20.625" stroke-linecap="round" stroke-linejoin="round" stroke-miterlimit="10" fill="none" fill-rule="evenodd"/><path d="M160.281 0.0046063C249.472-0.670683 322.322 71.3097 322.995 160.777 322.996 160.939 322.997 161.101 322.998 161.263" stroke="#000000" stroke-width="20.625" stroke-linecap="round" stroke-linejoin="round" stroke-miterlimit="10" fill="none" fill-rule="evenodd" transform="matrix(1 -1.22465e-16 -1.22465e-16 -1 1834.5 1887.5)"/></g></svg>