<svg width="840" height="1320" xmlns="http://www.w3.org/2000/svg" xmlns:xlink="http://www.w3.org/1999/xlink" xml:space="preserve" overflow="hidden"><g transform="translate(-1231 -576)"><path d="M0 0 293.229 226.201" stroke="#000000" stroke-width="20.625" stroke-linecap="round" stroke-miterlimit="8" fill="none" fill-rule="evenodd" transform="matrix(-1 0 0 1 1547.73 623.5)"/><path d="M1602.5 841.667C1602.5 836.052 1607.05 831.5 1612.67 831.5L1653.33 831.5C1658.95 831.5 1663.5 836.052 1663.5 841.667L1663.5 1183.33C1663.5 1188.95 1658.95 1193.5 1653.33 1193.5L1612.67 1193.5C1607.05 1193.5 1602.5 1188.95 1602.5 1183.33Z" stroke="#000000" stroke-width="17.1875" stroke-linecap="round" stroke-miterlimit="8" fill="none" fill-rule="evenodd"/><rect x="1375.5" y="1350.5" width="516" height="459" stroke="#000000" stroke-width="17.1875" stroke-linecap="round" stroke-miterlimit="8" fill="none"/><path d="M1301.5 1822.5C1301.5 1815.32 1307.32 1809.5 1314.5 1809.5L1952.5 1809.5C1959.68 1809.5 1965.5 1815.32 1965.5 1822.5L1965.5 1874.5C1965.5 1881.68 1959.68 1887.5 1952.5 1887.5L1314.5 1887.5C1307.32 1887.5 1301.5 1881.68 1301.5 1874.5Z" stroke="#000000" stroke-width="17.1875" stroke-linecap="round" stroke-miterlimit="8" fill="none" fill-rule="evenodd"/><path d="M1375.5 1374.5 1891.5 1374.5" stroke="#000000" stroke-width="17.1875" stroke-miterlimit="8" fill="none" fill-rule="evenodd"/><path d="M1375.5 1399.5 1891.5 1399.5" stroke="#000000" stroke-width="17.1875" stroke-miterlimit="8" fill="none" fill-rule="evenodd"/><path d="M1375.5 1421.5 1891.5 1421.5" stroke="#000000" stroke-width="17.1875" stroke-miterlimit="8" fill="none" fill-rule="evenodd"/><path d="M1375.5 1446.5 1891.5 1446.5" stroke="#000000" stroke-width="17.1875" stroke-miterlimit="8" fill="none" fill-rule="evenodd"/><path d="M1375.5 1468.5 1891.5 1468.5" stroke="#000000" stroke-width="17.1875" stroke-miterlimit="8" fill="none" fill-rule="evenodd"/><path d="M1375.5 1493.5 1891.5 1493.5" stroke="#000000" stroke-width="17.1875" stroke-miterlimit="8" fill="none" fill-rule="evenodd"/><path d="M1375.5 1518.5 1891.5 1518.5" stroke="#000000" stroke-width="17.1875" stroke-miterlimit="8" fill="none" fill-rule="evenodd"/><path d="M1375.5 1543.5 1891.5 1543.5" stroke="#000000" stroke-width="17.1875" stroke-miterlimit="8" fill="none" fill-rule="evenodd"/><path d="M1375.5 1565.5 1891.5 1565.5" stroke="#000000" stroke-width="17.1875" stroke-miterlimit="8" fill="none" fill-rule="evenodd"/><path d="M1375.5 1590.5 1891.5 1590.5" stroke="#000000" stroke-width="17.1875" stroke-miterlimit="8" fill="none" fill-rule="evenodd"/><path d="M1375.5 1612.5 1891.5 1612.5" stroke="#000000" stroke-width="17.1875" stroke-miterlimit="8" fill="none" fill-rule="evenodd"/><path d="M1375.5 1637.5 1891.5 1637.5" stroke="#000000" stroke-width="17.1875" stroke-miterlimit="8" fill="none" fill-rule="evenodd"/><path d="M1375.5 1662.5 1891.5 1662.5" stroke="#000000" stroke-width="17.1875" stroke-miterlimit="8" fill="none" fill-rule="evenodd"/><path d="M1375.5 1686.5 1891.5 1686.5" stroke="#000000" stroke-width="17.1875" stroke-miterlimit="8" fill="none" fill-rule="evenodd"/><path d="M1375.5 1709.5 1891.5 1709.5" stroke="#000000" stroke-width="17.1875" stroke-miterlimit="8" fill="none" fill-rule="evenodd"/><path d="M1375.5 1733.5 1891.5 1733.5" stroke="#000000" stroke-width="17.1875" stroke-miterlimit="8" fill="none" fill-rule="evenodd"/><path d="M1375.5 1756.5 1891.5 1756.5" stroke="#000000" stroke-width="17.1875" stroke-miterlimit="8" fill="none" fill-rule="evenodd"/><path d="M1375.5 1780.5 1891.5 1780.5" stroke="#000000" stroke-width="17.1875" stroke-miterlimit="8" fill="none" fill-rule="evenodd"/><path d="M0 0 168.232 320.859" stroke="#000000" stroke-width="17.1875" stroke-linecap="round" stroke-miterlimit="8" fill="none" fill-rule="evenodd" transform="matrix(1 0 0 -1 1893.5 1507.36)"/><path d="M2062.17 1185.15 1719.5 623.5" stroke="#000000" stroke-width="17.1875" stroke-linecap="round" stroke-miterlimit="8" fill="none" fill-rule="evenodd"/><path d="M1511 709.5C1511 642.398 1565.4 588 1632.5 588 1699.6 588 1754 642.398 1754 709.5 1754 776.603 1699.6 831 1632.5 831 1565.4 831 1511 776.603 1511 709.5Z" stroke="#000000" stroke-width="24.0625" stroke-linecap="round" stroke-miterlimit="8" fill="none" fill-rule="evenodd"/><path d="M1609.5 711C1609.5 698.021 1620.02 687.5 1633 687.5 1645.98 687.5 1656.5 698.021 1656.5 711 1656.5 723.979 1645.98 734.5 1633 734.5 1620.02 734.5 1609.5 723.979 1609.5 711Z" stroke="#000000" stroke-width="17.1875" stroke-linecap="round" stroke-miterlimit="8" fill="none" fill-rule="evenodd"/><path d="M1239.5 1193.5 2027.64 1193.5" stroke="#000000" stroke-width="17.1875" stroke-linecap="round" stroke-linejoin="round" stroke-miterlimit="10" fill="none" fill-rule="evenodd"/><path d="M1239.5 1193.5 1375.57 1349.88" stroke="#000000" stroke-width="17.1875" stroke-linecap="round" stroke-linejoin="round" stroke-miterlimit="10" fill="none" fill-rule="evenodd"/><path d="M0 0 133.756 156.384" stroke="#000000" stroke-width="17.1875" stroke-linecap="round" stroke-linejoin="round" stroke-miterlimit="10" fill="none" fill-rule="evenodd" transform="matrix(-1 0 0 1 2027.26 1193.5)"/></g></svg>