<svg width="1036" height="1320" xmlns="http://www.w3.org/2000/svg" xmlns:xlink="http://www.w3.org/1999/xlink" xml:space="preserve" overflow="hidden"><g transform="translate(-1133 -578)"><path d="M1143.5 757.504C1143.5 664.165 1219.17 588.5 1312.5 588.5L1988.5 588.5C2081.83 588.5 2157.5 664.165 2157.5 757.504L2157.5 1718.5C2157.5 1811.83 2081.83 1887.5 1988.5 1887.5L1312.5 1887.5C1219.17 1887.5 1143.5 1811.83 1143.5 1718.5Z" stroke="#000000" stroke-width="20.625" stroke-linecap="round" stroke-miterlimit="8" fill="none" fill-rule="evenodd"/><path d="M1218.5 977.5C1218.5 869.804 1305.8 782.5 1413.5 782.5 1521.2 782.5 1608.5 869.804 1608.5 977.5 1608.5 1085.2 1521.2 1172.5 1413.5 1172.5 1305.8 1172.5 1218.5 1085.2 1218.5 977.5Z" stroke="#000000" stroke-width="20.625" stroke-linecap="round" stroke-miterlimit="8" fill="none" fill-rule="evenodd"/><path d="M1701.5 977C1701.5 869.581 1788.58 782.5 1896 782.5 2003.42 782.5 2090.5 869.581 2090.5 977 2090.5 1084.42 2003.42 1171.5 1896 1171.5 1788.58 1171.5 1701.5 1084.42 1701.5 977Z" stroke="#000000" stroke-width="20.625" stroke-linecap="round" stroke-miterlimit="8" fill="none" fill-rule="evenodd"/><path d="M1143.5 782.5 2157.83 782.5" stroke="#000000" stroke-width="20.625" stroke-linecap="round" stroke-miterlimit="8" fill="none" fill-rule="evenodd"/><path d="M0 0 482.382 0.519685" stroke="#000000" stroke-width="20.625" stroke-linecap="round" stroke-miterlimit="8" fill="none" fill-rule="evenodd" transform="matrix(-1 0 0 1 1895.88 1171.5)"/></g></svg>