<svg width="1245" height="1320" xmlns="http://www.w3.org/2000/svg" xmlns:xlink="http://www.w3.org/1999/xlink" xml:space="preserve" overflow="hidden"><g transform="translate(-1028 -578)"><path d="M1038.5 1760C1038.5 1745.92 1049.92 1734.5 1064 1734.5L2237 1734.5C2251.08 1734.5 2262.5 1745.92 2262.5 1760L2262.5 1862C2262.5 1876.08 2251.08 1887.5 2237 1887.5L1064 1887.5C1049.92 1887.5 1038.5 1876.08 1038.5 1862Z" stroke="#000000" stroke-width="20.625" stroke-linecap="round" stroke-linejoin="round" stroke-miterlimit="10" fill="none" fill-rule="evenodd"/><path d="M1038.5 1087C1038.5 1075.13 1048.13 1065.5 1060 1065.5L1146 1065.5C1157.87 1065.5 1167.5 1075.13 1167.5 1087L1167.5 1713C1167.5 1724.87 1157.87 1734.5 1146 1734.5L1060 1734.5C1048.13 1734.5 1038.5 1724.87 1038.5 1713Z" stroke="#000000" stroke-width="20.625" stroke-linecap="round" stroke-linejoin="round" stroke-miterlimit="10" fill="none" fill-rule="evenodd"/><path d="M1215.5 680.168C1215.5 629.541 1256.54 588.5 1307.17 588.5L1673.83 588.5C1724.46 588.5 1765.5 629.541 1765.5 680.168L1765.5 1553.83C1765.5 1604.46 1724.46 1645.5 1673.83 1645.5L1307.17 1645.5C1256.54 1645.5 1215.5 1604.46 1215.5 1553.83Z" stroke="#000000" stroke-width="20.625" stroke-linecap="round" stroke-linejoin="round" stroke-miterlimit="10" fill="none" fill-rule="evenodd"/><path d="M2262.3 1054.17 1737.5 613.5" stroke="#000000" stroke-width="20.625" stroke-linecap="round" stroke-linejoin="round" stroke-miterlimit="10" fill="none" fill-rule="evenodd"/><path d="M0 0 524.8 436.338" stroke="#000000" stroke-width="20.625" stroke-linecap="round" stroke-linejoin="round" stroke-miterlimit="10" fill="none" fill-rule="evenodd" transform="matrix(1 0 0 -1 1737.5 1620.84)"/><path d="M2262.5 1054.5 2262.5 1184.57" stroke="#000000" stroke-width="20.625" stroke-linecap="round" stroke-linejoin="round" stroke-miterlimit="10" fill="none" fill-rule="evenodd"/><path d="M1167.5 1073.5C1167.5 1069.08 1171.08 1065.5 1175.5 1065.5L1207.5 1065.5C1211.92 1065.5 1215.5 1069.08 1215.5 1073.5L1215.5 1160.5C1215.5 1164.92 1211.92 1168.5 1207.5 1168.5L1175.5 1168.5C1171.08 1168.5 1167.5 1164.92 1167.5 1160.5Z" stroke="#000000" stroke-width="20.625" stroke-linecap="round" stroke-linejoin="round" stroke-miterlimit="10" fill="none" fill-rule="evenodd"/></g></svg>