<svg width="403" height="1320" xmlns="http://www.w3.org/2000/svg" xmlns:xlink="http://www.w3.org/1999/xlink" xml:space="preserve" overflow="hidden"><g transform="translate(-1449 -578)"><path d="M1617.5 1120.83C1617.5 1114.57 1622.57 1109.5 1628.83 1109.5L1674.17 1109.5C1680.43 1109.5 1685.5 1114.57 1685.5 1120.83L1685.5 1170.17C1685.5 1176.43 1680.43 1181.5 1674.17 1181.5L1628.83 1181.5C1622.57 1181.5 1617.5 1176.43 1617.5 1170.17Z" stroke="#000000" stroke-width="20.625" stroke-linecap="round" stroke-miterlimit="8" fill="none" fill-rule="evenodd"/><path d="M1579.5 597.167C1579.5 592.38 1583.38 588.5 1588.17 588.5L1712.83 588.5C1717.62 588.5 1721.5 592.38 1721.5 597.167L1721.5 631.833C1721.5 636.62 1717.62 640.5 1712.83 640.5L1588.17 640.5C1583.38 640.5 1579.5 636.62 1579.5 631.833Z" stroke="#000000" stroke-width="20.625" stroke-linecap="round" stroke-miterlimit="8" fill="none" fill-rule="evenodd"/><path d="M1688.87 1109.5 1613.13 1109.5 1513.5 1009.87 1513.5 640.5 1513.5 640.5 1788.5 640.5 1788.5 640.5 1788.5 1009.87Z" stroke="#000000" stroke-width="20.625" stroke-linecap="round" stroke-miterlimit="8" fill="none" fill-rule="evenodd"/><path d="M1646.31 1031.46C1572.24 1030.15 1513.5 998.769 1513.5 960.5" stroke="#000000" stroke-width="20.625" stroke-linecap="round" stroke-miterlimit="8" fill="none" fill-rule="evenodd"/><path d="M145.194 0.0396425C216.676 1.24701 274.955 29.3978 280.567 65.4292" stroke="#000000" stroke-width="20.625" stroke-linecap="round" stroke-miterlimit="8" fill="none" fill-rule="evenodd" transform="matrix(1 -1.22465e-16 -1.22465e-16 -1 1507.5 1031.5)"/><path d="M1646.31 935.458C1572.24 934.152 1513.5 902.769 1513.5 864.5" stroke="#000000" stroke-width="20.625" stroke-linecap="round" stroke-miterlimit="8" fill="none" fill-rule="evenodd"/><path d="M145.194 0.0396425C216.676 1.24701 274.955 29.3978 280.567 65.4292" stroke="#000000" stroke-width="20.625" stroke-linecap="round" stroke-miterlimit="8" fill="none" fill-rule="evenodd" transform="matrix(1 -1.22465e-16 -1.22465e-16 -1 1507.5 935.5)"/><path d="M1646.31 842.459C1572.24 841.152 1513.5 809.769 1513.5 771.5" stroke="#000000" stroke-width="20.625" stroke-linecap="round" stroke-miterlimit="8" fill="none" fill-rule="evenodd"/><path d="M145.194 0.0396425C216.676 1.24701 274.955 29.3978 280.567 65.4292" stroke="#000000" stroke-width="20.625" stroke-linecap="round" stroke-miterlimit="8" fill="none" fill-rule="evenodd" transform="matrix(1 -1.22465e-16 -1.22465e-16 -1 1507.5 842.5)"/><path d="M1646.31 744.459C1572.24 743.152 1513.5 711.769 1513.5 673.5" stroke="#000000" stroke-width="20.625" stroke-linecap="round" stroke-miterlimit="8" fill="none" fill-rule="evenodd"/><path d="M145.194 0.0396425C216.676 1.24701 274.955 29.3978 280.567 65.4292" stroke="#000000" stroke-width="20.625" stroke-linecap="round" stroke-miterlimit="8" fill="none" fill-rule="evenodd" transform="matrix(1 -1.22465e-16 -1.22465e-16 -1 1507.5 744.5)"/><path d="M1460.5 1199.33C1460.5 1187.83 1469.83 1178.5 1481.33 1178.5L1818.67 1178.5C1830.17 1178.5 1839.5 1187.83 1839.5 1199.33L1839.5 1282.67C1839.5 1294.17 1830.17 1303.5 1818.67 1303.5L1481.33 1303.5C1469.83 1303.5 1460.5 1294.17 1460.5 1282.67Z" stroke="#000000" stroke-width="20.625" stroke-linecap="round" stroke-miterlimit="8" fill="none" fill-rule="evenodd"/><path d="M1579.5 1201.67C1579.5 1190.53 1588.53 1181.5 1599.67 1181.5L1701.33 1181.5C1712.47 1181.5 1721.5 1190.53 1721.5 1201.67L1721.5 1282.33C1721.5 1293.47 1712.47 1302.5 1701.33 1302.5L1599.67 1302.5C1588.53 1302.5 1579.5 1293.47 1579.5 1282.33Z" stroke="#000000" stroke-width="20.625" stroke-linecap="round" stroke-miterlimit="8" fill="none" fill-rule="evenodd"/><path d="M0 0 119.46 0.000360892" stroke="#000000" stroke-width="20.625" stroke-linecap="round" stroke-miterlimit="8" fill="#FFFFFF" fill-rule="evenodd" transform="matrix(-1 0 0 1 1840.96 1241.5)"/><path d="M0 0 119.46 0.000360892" stroke="#000000" stroke-width="20.625" stroke-linecap="round" stroke-linejoin="round" stroke-miterlimit="10" fill="none" fill-rule="evenodd" transform="matrix(-1 0 0 1 1579.96 1241.5)"/><path d="M1460.5 1031.5 1460.5 1828.49" stroke="#000000" stroke-width="20.625" stroke-linecap="round" stroke-linejoin="round" stroke-miterlimit="10" fill="none" fill-rule="evenodd"/><path d="M1460.5 1032C1460.5 1002.45 1484.45 978.5 1514 978.5" stroke="#000000" stroke-width="20.625" stroke-linecap="round" stroke-linejoin="round" stroke-miterlimit="10" fill="none" fill-rule="evenodd"/><path d="M1513.5 1887.5C1483.68 1887.5 1459.5 1863.32 1459.5 1833.5" stroke="#000000" stroke-width="20.625" stroke-linecap="round" stroke-linejoin="round" stroke-miterlimit="10" fill="none" fill-rule="evenodd"/><path d="M1513.5 1887.5 1787.85 1887.5" stroke="#000000" stroke-width="20.625" stroke-linecap="round" stroke-linejoin="round" stroke-miterlimit="10" fill="none" fill-rule="evenodd"/><path d="M0 0 0.000360892 796.989" stroke="#000000" stroke-width="20.625" stroke-linecap="round" stroke-linejoin="round" stroke-miterlimit="10" fill="none" fill-rule="evenodd" transform="matrix(-1 0 0 1 1839.5 1031.5)"/><path d="M53.4999 0C83.0471-1.37498e-14 107 24.1766 107 54" stroke="#000000" stroke-width="20.625" stroke-linecap="round" stroke-linejoin="round" stroke-miterlimit="10" fill="none" fill-rule="evenodd" transform="matrix(-6.12323e-17 -1 -1 6.12323e-17 1839.5 1085.5)"/><path d="M54 0C83.8233-1.37498e-14 108 24.1766 108 54" stroke="#000000" stroke-width="20.625" stroke-linecap="round" stroke-linejoin="round" stroke-miterlimit="10" fill="none" fill-rule="evenodd" transform="matrix(1 -1.22465e-16 -1.22465e-16 -1 1731.5 1887.5)"/></g></svg>