<svg width="859" height="1320" xmlns="http://www.w3.org/2000/svg" xmlns:xlink="http://www.w3.org/1999/xlink" xml:space="preserve" overflow="hidden"><g transform="translate(-1221 -578)"><path d="M1231.5 728.169C1231.5 651.032 1294.03 588.5 1371.17 588.5L1929.83 588.5C2006.97 588.5 2069.5 651.032 2069.5 728.169L2069.5 1747.83C2069.5 1824.97 2006.97 1887.5 1929.83 1887.5L1371.17 1887.5C1294.03 1887.5 1231.5 1824.97 1231.5 1747.83Z" stroke="#000000" stroke-width="20.625" stroke-linecap="round" stroke-miterlimit="8" fill="none" fill-rule="evenodd"/><path d="M1486.5 974.5C1486.5 883.925 1559.93 810.5 1650.5 810.5 1741.07 810.5 1814.5 883.925 1814.5 974.5 1814.5 1065.07 1741.07 1138.5 1650.5 1138.5 1559.93 1138.5 1486.5 1065.07 1486.5 974.5Z" stroke="#000000" stroke-width="20.625" stroke-linecap="round" stroke-miterlimit="8" fill="none" fill-rule="evenodd"/><path d="M1486.5 1513.5C1486.5 1422.93 1559.93 1349.5 1650.5 1349.5 1741.07 1349.5 1814.5 1422.93 1814.5 1513.5 1814.5 1604.07 1741.07 1677.5 1650.5 1677.5 1559.93 1677.5 1486.5 1604.07 1486.5 1513.5Z" stroke="#000000" stroke-width="20.625" stroke-linecap="round" stroke-miterlimit="8" fill="none" fill-rule="evenodd"/><path d="M0 0 408.451 0.000360892" stroke="#000000" stroke-width="20.625" stroke-linecap="round" stroke-miterlimit="8" fill="none" fill-rule="evenodd" transform="matrix(-1 0 0 1 2058.95 810.5)"/><path d="M1534.5 1090.5 1766.34 1397.99" stroke="#000000" stroke-width="20.625" stroke-linecap="round" stroke-miterlimit="8" fill="none" fill-rule="evenodd"/><path d="M1534.26 1630.15 1231.5 1238.5" stroke="#000000" stroke-width="20.625" stroke-linecap="round" stroke-linejoin="round" stroke-miterlimit="10" fill="none" fill-rule="evenodd"/></g></svg>