<svg width="860" height="1320" xmlns="http://www.w3.org/2000/svg" xmlns:xlink="http://www.w3.org/1999/xlink" xml:space="preserve" overflow="hidden"><g transform="translate(-1221 -578)"><path d="M1231.5 728.169C1231.5 651.032 1294.03 588.5 1371.17 588.5L1929.83 588.5C2006.97 588.5 2069.5 651.032 2069.5 728.169L2069.5 1747.83C2069.5 1824.97 2006.97 1887.5 1929.83 1887.5L1371.17 1887.5C1294.03 1887.5 1231.5 1824.97 1231.5 1747.83Z" stroke="#000000" stroke-width="20.625" stroke-linecap="round" stroke-miterlimit="8" fill="none" fill-rule="evenodd"/><path d="M1486.5 974.5C1486.5 883.925 1559.93 810.5 1650.5 810.5 1741.07 810.5 1814.5 883.925 1814.5 974.5 1814.5 1065.07 1741.07 1138.5 1650.5 1138.5 1559.93 1138.5 1486.5 1065.07 1486.5 974.5Z" stroke="#000000" stroke-width="20.625" stroke-linecap="round" stroke-miterlimit="8" fill="none" fill-rule="evenodd"/><path d="M1486.5 1513.5C1486.5 1422.93 1559.93 1349.5 1650.5 1349.5 1741.07 1349.5 1814.5 1422.93 1814.5 1513.5 1814.5 1604.07 1741.07 1677.5 1650.5 1677.5 1559.93 1677.5 1486.5 1604.07 1486.5 1513.5Z" stroke="#000000" stroke-width="20.625" stroke-linecap="round" stroke-miterlimit="8" fill="none" fill-rule="evenodd"/><path d="M1770.5 1173.33C1770.5 1152.44 1787.44 1135.5 1808.33 1135.5L1964.67 1135.5C1985.56 1135.5 2002.5 1152.44 2002.5 1173.33L2002.5 1324.67C2002.5 1345.56 1985.56 1362.5 1964.67 1362.5L1808.33 1362.5C1787.44 1362.5 1770.5 1345.56 1770.5 1324.67Z" stroke="#000000" stroke-width="20.625" stroke-linecap="round" stroke-miterlimit="8" fill="none" fill-rule="evenodd"/><path d="M1814.5 974.5 1814.5 1135.26" stroke="#000000" stroke-width="20.625" stroke-miterlimit="8" fill="none" fill-rule="evenodd"/><path d="M0 0 0.000360892 539.335" stroke="#000000" stroke-width="20.625" stroke-linecap="round" stroke-miterlimit="8" fill="none" fill-rule="evenodd" transform="matrix(-1 0 0 1 1486.5 974.5)"/><path d="M0 0 418.678 0.000360892" stroke="#000000" stroke-width="20.625" stroke-linecap="round" stroke-miterlimit="8" fill="none" fill-rule="evenodd" transform="matrix(-1 0 0 1 1650.18 810.5)"/><g><g><g><path d="M203.85 180 115.875 27C112.5 20.925 103.725 20.925 100.35 27L12.15 180C8.77499 186.075 13.05 193.5 20.025 193.5L108 193.5 195.975 193.5C202.95 193.5 207.225 186.075 203.85 180ZM93.1499 173.475 105.975 121.5 87.5249 121.5 96.5249 65.25 123.525 65.25 111.6 108 130.5 108 93.1499 173.475Z" transform="matrix(1 0 0 1 1778 1134)"/></g></g></g><path d="M0 0 419.174 0.000360892" stroke="#000000" stroke-width="20.625" stroke-linecap="round" stroke-miterlimit="8" fill="none" fill-rule="evenodd" transform="matrix(-1 0 0 1 2069.67 810.5)"/><path d="M0 0 0.000360892 151.212" stroke="#000000" stroke-width="20.625" stroke-linejoin="round" stroke-miterlimit="10" fill="none" fill-rule="evenodd" transform="matrix(1 0 0 -1 1814.5 1513.71)"/></g></svg>