<svg width="761" height="1320" xmlns="http://www.w3.org/2000/svg" xmlns:xlink="http://www.w3.org/1999/xlink" xml:space="preserve" overflow="hidden"><g transform="translate(-1270 -578)"><path d="M1280.5 711.835C1280.5 643.719 1335.72 588.5 1403.84 588.5L1897.16 588.5C1965.28 588.5 2020.5 643.719 2020.5 711.835L2020.5 1764.16C2020.5 1832.28 1965.28 1887.5 1897.16 1887.5L1403.84 1887.5C1335.72 1887.5 1280.5 1832.28 1280.5 1764.16Z" stroke="#000000" stroke-width="20.625" stroke-linecap="round" stroke-miterlimit="8" fill="none" fill-rule="evenodd"/><path d="M1316.5 893C1316.5 846.884 1353.88 809.5 1400 809.5 1446.12 809.5 1483.5 846.884 1483.5 893 1483.5 939.116 1446.12 976.5 1400 976.5 1353.88 976.5 1316.5 939.116 1316.5 893Z" stroke="#000000" stroke-width="20.625" stroke-linecap="round" stroke-miterlimit="8" fill="none" fill-rule="evenodd"/><path d="M1280.5 1048.5 2020.09 1048.5" stroke="#000000" stroke-width="20.625" stroke-linecap="round" stroke-miterlimit="8" fill="none" fill-rule="evenodd"/><path d="M1479.5 726C1479.5 679.884 1516.88 642.5 1563 642.5 1609.12 642.5 1646.5 679.884 1646.5 726 1646.5 772.116 1609.12 809.5 1563 809.5 1516.88 809.5 1479.5 772.116 1479.5 726Z" stroke="#000000" stroke-width="20.625" stroke-linecap="round" stroke-miterlimit="8" fill="none" fill-rule="evenodd"/><path d="M1642.5 895.5C1642.5 849.108 1679.88 811.5 1726 811.5 1772.12 811.5 1809.5 849.108 1809.5 895.5 1809.5 941.892 1772.12 979.5 1726 979.5 1679.88 979.5 1642.5 941.892 1642.5 895.5Z" stroke="#000000" stroke-width="20.625" stroke-linecap="round" stroke-miterlimit="8" fill="none" fill-rule="evenodd"/><path d="M1786.5 726C1786.5 679.884 1824.11 642.5 1870.5 642.5 1916.89 642.5 1954.5 679.884 1954.5 726 1954.5 772.116 1916.89 809.5 1870.5 809.5 1824.11 809.5 1786.5 772.116 1786.5 726Z" stroke="#000000" stroke-width="20.625" stroke-linecap="round" stroke-miterlimit="8" fill="none" fill-rule="evenodd"/><path d="M1280.5 809.5 2020.09 809.5" stroke="#000000" stroke-width="20.625" stroke-linecap="round" stroke-linejoin="round" stroke-miterlimit="10" fill="none" fill-rule="evenodd"/></g></svg>