<svg width="797" height="1310" xmlns="http://www.w3.org/2000/svg" xmlns:xlink="http://www.w3.org/1999/xlink" xml:space="preserve" overflow="hidden"><g transform="translate(-1252 -588)"><path d="M1262.5 727.836C1262.5 656.405 1320.41 598.5 1391.84 598.5L1909.16 598.5C1980.59 598.5 2038.5 656.405 2038.5 727.836L2038.5 1758.16C2038.5 1829.59 1980.59 1887.5 1909.16 1887.5L1391.84 1887.5C1320.41 1887.5 1262.5 1829.59 1262.5 1758.16Z" stroke="#000000" stroke-width="20.625" stroke-linecap="round" stroke-miterlimit="8" fill="none" fill-rule="evenodd"/><path d="M1262.5 732.891C1262.5 658.669 1322.67 598.5 1396.89 598.5L1904.11 598.5C1978.33 598.5 2038.5 658.669 2038.5 732.891L2038.5 812.109C2038.5 886.331 1978.33 946.5 1904.11 946.5L1396.89 946.5C1322.67 946.5 1262.5 886.331 1262.5 812.109Z" stroke="#000000" stroke-width="20.625" stroke-linecap="round" stroke-miterlimit="8" fill="none" fill-rule="evenodd"/><g><g><g><path d="M320.875 283.333 182.396 42.5C177.083 32.9375 163.271 32.9375 157.958 42.5L19.125 283.333C13.8125 292.896 20.5417 304.583 31.5208 304.583L170 304.583 308.479 304.583C319.458 304.583 326.187 292.896 320.875 283.333ZM146.625 273.062 166.812 191.25 137.771 191.25 151.937 102.708 194.437 102.708 175.667 170 205.417 170 146.625 273.062Z" transform="matrix(1 0 0 1 1480 588)"/></g></g></g></g></svg>